<svg xmlns="http://www.w3.org/2000/svg" width="128" height="128" viewBox="0 0 24 24" fill="none" stroke="white" stroke-width="2" stroke-linecap="round" stroke-linejoin="round">
	<rect width="24" height="24" rx="4" fill="#4f6bed" stroke="none"/>
	<!-- Flame -->
	<path d="M12 3q1 4 4 6.5t3 5.5a1 1 0 0 1-14 0 5 5 0 0 1 1-3 1 1 0 0 0 5 0c0-2-1.5-3-1.5-5q0-2 2.5-4" />
	<!-- Small 4-point sparkle (top right) -->
	<path d="M19.5 2l0.25 1.3a0.5 0.5 0 0 0 0.4 0.4l1.3 0.25-1.3 0.25a0.5 0.5 0 0 0-0.4 0.4L19.5 5.9l-0.25-1.3a0.5 0.5 0 0 0-0.4-0.4L17.55 3.95l1.3-0.25a0.5 0.5 0 0 0 0.4-0.4z" stroke-width="1.2" />
	<!-- Hollow circle (top left) -->
	<circle cx="4.5" cy="4" r="1.5" fill="none" />
</svg>
